<?xml version="1.0" encoding="utf-8"?>
<!-- Generator: Adobe Illustrator 26.3.1, SVG Export Plug-In . SVG Version: 6.00 Build 0)  -->
<svg version="1.1" id="Layer_1" xmlns="http://www.w3.org/2000/svg" xmlns:xlink="http://www.w3.org/1999/xlink" x="0px" y="0px"
	 viewBox="0 0 254.3 41.9" style="enable-background:new 0 0 254.3 41.9;" xml:space="preserve">
<style type="text/css">
	.st0{fill:#FFFFFF;}
	.st1{fill:#D71920;}
</style>
<g id="Layer_2_00000030471349574374280760000012485913414105762487_">
	<g id="图层_1">
		<path class="st0" d="M51,9.8V3.5h16.5v6.3h-4.4v28.1h-7.6V9.8H51z"/>
		<path class="st0" d="M69.9,37.9v-6.7c-0.1-5.5,0.4-11,1.5-16.3c0.8-4,2.4-7.9,4.6-11.3h6.8c2.2,3.5,3.8,7.3,4.6,11.4
			c1.1,5.4,1.6,10.8,1.5,16.3v6.7h-7.7v-5.7h-3.7v5.7H69.9z M77.5,25.7h3.7c0-2.9-0.2-5.8-0.5-8.7c-0.2-2.2-0.7-4.3-1.3-6.4
			c-0.7,2.1-1.1,4.2-1.3,6.4C77.7,19.9,77.5,22.8,77.5,25.7z"/>
		<path class="st0" d="M92.7,3.5h7.6v27.9h7.9v6.5H92.7V3.5z"/>
		<path class="st0" d="M110.2,14.6c0-4.2,0.7-7.2,2.2-9s3.9-2.6,7.4-2.6s5.9,0.9,7.4,2.6c1.5,1.7,2.2,4.7,2.2,9v12.2
			c0,4.2-0.7,7.2-2.2,9s-3.9,2.6-7.4,2.6s-5.9-0.9-7.4-2.6s-2.2-4.7-2.2-9V14.6z M117.9,13.6v15.2c-0.1,0.9,0,1.7,0.4,2.5
			c0.4,0.4,0.9,0.6,1.5,0.5c0.6,0.1,1.1-0.1,1.5-0.6c0.3-0.9,0.5-1.8,0.4-2.7V12.8c0.1-0.9-0.1-1.8-0.4-2.7
			c-0.4-0.4-0.9-0.6-1.5-0.6c-0.5-0.1-1.1,0.1-1.5,0.5c-0.3,0.8-0.5,1.6-0.4,2.5V13.6z"/>
		<path class="st0" d="M145,14.7v-2c0.1-0.8-0.1-1.7-0.6-2.4c-0.8-0.9-2.2-1-3.2-0.3c-0.4,0.4-0.6,0.9-0.5,1.4c0,1.1,1.8,3.1,5.4,6
			l1.6,1.2c1.4,1.1,2.6,2.5,3.4,4.1c0.7,1.8,1.1,3.7,1,5.6c0,3.3-0.8,5.8-2.4,7.5s-4,2.5-7.2,2.5s-5.8-0.8-7.3-2.4s-2.3-4.1-2.3-7.6
			v-4.2h7.7V28c-0.1,1,0.1,2,0.5,2.9c0.3,0.6,0.9,0.9,1.5,0.9c0.5,0,1-0.2,1.3-0.7c0.4-0.6,0.5-1.2,0.5-1.9c0-1-0.2-2.1-0.7-3
			c-0.8-1.3-1.9-2.4-3.1-3.3c-0.3-0.2-0.6-0.6-1.2-1c-4.4-3.7-6.5-7.2-6.5-10.3c-0.2-2.4,0.7-4.7,2.5-6.4c1.7-1.5,4-2.2,7.1-2.2
			c3.3,0,5.7,0.7,7.2,2.1c1.5,1.4,2.2,3.9,2.2,7.3v2.2H145z"/>
		<path class="st0" d="M154.8,9.8V3.5h16.5v6.3h-4.4v28.1h-7.6V9.8H154.8z"/>
		<path class="st0" d="M174.1,14.6c0-4.2,0.7-7.2,2.2-9c1.5-1.7,3.9-2.6,7.4-2.6s5.9,0.9,7.4,2.6s2.2,4.7,2.2,9v12.2
			c0,4.2-0.7,7.2-2.2,9s-3.9,2.6-7.4,2.6s-5.9-0.9-7.4-2.6s-2.2-4.7-2.2-9V14.6z M181.8,13.6v15.2c-0.1,0.9,0.1,1.7,0.4,2.5
			c0.4,0.4,0.9,0.6,1.5,0.5c0.6,0.1,1.1-0.1,1.5-0.6c0.4-0.9,0.5-1.8,0.4-2.7V12.8c0.1-0.9-0.1-1.8-0.4-2.7
			c-0.4-0.4-0.9-0.6-1.5-0.6c-0.5-0.1-1.1,0.1-1.5,0.5c-0.3,0.8-0.5,1.6-0.4,2.5V13.6z"/>
		<path class="st0" d="M197.5,3.5h7.1c0.8,1.3,1.5,2.6,2.2,4c0.7,1.5,1.4,3.2,2.1,5v-9h7.6v34.4h-7.6v-6.7c0-2.8-0.3-5.7-0.9-8.4
			c-0.6-2.7-1.6-5.2-2.8-7.7v22.8h-7.6V3.5z"/>
		<path class="st0" d="M221,37.9V3.5h15.5V10h-7.9v5.9h7.6v6.5h-7.6v9h8.3v6.5L221,37.9z"/>
		<path class="st1" d="M21,0C9.4,0,0,9.4,0,21s9.4,21,21,21s21-9.4,21-21S32.6,0,21,0z"/>
		<path class="st0" d="M32.3,9.4H9.6c-0.7,0-1.3,0.6-1.3,1.3l0,0v5.4c0,0.7,0.6,1.3,1.3,1.3l0,0h6.5v5.2c-0.1,0.9,0,1.8,0.3,2.6
			c0.3,0.5,0.8,1,1.4,1.3c0.6,0.4,1.3,0.7,2,1c1.2,0.6,1.8,1.1,1.8,1.6v2.5c0,0.2,0,0.4-0.2,0.6c-0.1,0.1-0.3,0.2-0.5,0.2
			c-0.2,0-0.4-0.1-0.5-0.3c-0.1-0.3-0.2-0.6-0.2-0.9v-2c-0.3-0.2-0.6-0.4-1-0.6c-0.7-0.3-1.4-0.7-2.1-1.1c-0.4-0.2-0.7-0.5-1-0.8
			v7.5c0,0.7,0.6,1.3,1.3,1.3l0,0h7c0.7,0,1.3-0.6,1.3-1.3l0,0v-5.9c0-0.7-0.1-1.4-0.5-2c-0.7-0.7-1.5-1.2-2.4-1.6l-0.9-0.4
			c-1.2-0.6-1.8-1.3-1.8-2.2V21c0-0.3,0-0.6,0.1-0.9c0.1-0.2,0.3-0.2,0.5-0.2c0.2,0,0.4,0.1,0.6,0.2c0.1,0.3,0.2,0.6,0.2,0.9v1.5
			c0.2,0.4,0.6,0.6,1,0.8l0.9,0.4c0.8,0.4,1.6,0.9,2.3,1.5v-7.8h6.4c0.7,0,1.3-0.6,1.3-1.3c0,0,0,0,0,0v-5.4
			C33.6,10,33,9.4,32.3,9.4z"/>
		<path class="st0" d="M247.6,1.6c1.2,0,2.3,0.3,3.3,0.9c1.1,0.6,1.9,1.4,2.5,2.5c1.2,2.1,1.2,4.7,0,6.7c-0.6,1-1.4,1.9-2.5,2.5
			c-2.1,1.2-4.6,1.2-6.7,0c-1-0.6-1.9-1.4-2.5-2.5c-0.6-1-0.9-2.2-0.9-3.4c0-1.2,0.3-2.4,0.9-3.4c0.6-1,1.5-1.9,2.5-2.5
			C245.3,1.9,246.4,1.6,247.6,1.6z M247.6,3c-0.9,0-1.9,0.2-2.7,0.7c-0.8,0.5-1.5,1.2-2,2c-0.5,0.8-0.7,1.8-0.7,2.7
			c0,0.9,0.2,1.9,0.7,2.7c0.5,0.8,1.2,1.5,2,2c1.7,1,3.7,1,5.4,0c0.8-0.5,1.5-1.2,2-2c0.5-0.8,0.7-1.8,0.7-2.7c0-1-0.3-1.9-0.7-2.7
			c-0.5-0.8-1.2-1.5-2-2C249.4,3.2,248.5,3,247.6,3L247.6,3z M244.5,12V4.8h1.5c1.4,0,2.1,0,2.3,0c0.4,0,0.8,0.1,1.1,0.3
			c0.3,0.2,0.5,0.4,0.7,0.7c0.2,0.3,0.3,0.6,0.3,1c0,0.5-0.2,1-0.5,1.3c-0.4,0.4-0.9,0.6-1.4,0.7c0.2,0.1,0.4,0.2,0.5,0.3
			c0.2,0.2,0.3,0.4,0.5,0.6c0.1,0.1,0.2,0.4,0.5,0.9l0.8,1.4H249l-0.6-1.2c-0.2-0.5-0.6-1-1-1.5c-0.3-0.2-0.6-0.3-1-0.3H246v3
			L244.5,12z M246,7.9h0.6c0.5,0,1,0,1.6-0.1c0.2-0.1,0.4-0.2,0.5-0.3c0.1-0.2,0.2-0.4,0.2-0.6c0-0.2-0.1-0.4-0.2-0.5
			c-0.1-0.2-0.3-0.3-0.5-0.3c-0.5-0.1-1-0.1-1.6-0.1H246V7.9z"/>
	</g>
</g>
</svg>
