<?xml version="1.0" standalone="no"?><!DOCTYPE svg PUBLIC "-//W3C//DTD SVG 1.1//EN" "http://www.w3.org/Graphics/SVG/1.1/DTD/svg11.dtd"><svg t="1689839890978" class="icon" viewBox="0 0 1152 1024" version="1.1" xmlns="http://www.w3.org/2000/svg" p-id="14199" xmlns:xlink="http://www.w3.org/1999/xlink" width="144" height="128"><path d="M768.943587 760.43531C736.445805 791.941526 699.693884 819.193603 658.783782 839.920535L658.783782 883.229587 248.659212 883.229587 248.659212 839.920535C102.67508 765.936903 2.55888 615.858562 2.55888 442.334479 2.55888 439.295808 2.55888 317.109265 2.55888 317.109265L904.308365 317.397139C904.308365 317.397139 904.020491 335.469232 903.668645 357.859436 982.03436 355.236584 1132.880365 354.404948 1148.361592 501.892422 1181.179234 643.942275 970.135566 712.744174 768.943587 760.43531ZM1076.93684 500.037234C1058.640845 428.004748 978.004123 435.233585 904.948085 437.632536 904.884113 441.150996 904.852127 443.006185 904.852127 442.334479 904.852127 532.02324 877.727994 615.15487 831.732117 685.044293 961.595302 643.814331 1095.232836 579.298557 1076.93684 500.037234ZM583.68064 238.711564C583.68064 238.711564 650.819267 195.530455 650.819267 155.004186 650.819267 114.477916 525.466109 152.477291 525.466109 89.144999 525.466109 25.812707 649.34791 0 649.34791 0 649.34791 0 584.80015 43.181108 584.80015 88.761167 584.80015 134.373212 715.271069 93.846942 715.271069 154.65234 715.271069 215.457737 583.68064 238.711564 583.68064 238.711564ZM421.031799 129.319423C421.031799 174.931467 551.502718 134.373212 551.502718 195.178609 551.502718 255.984007 419.944274 279.269819 419.944274 279.269819 419.944274 279.269819 487.082901 236.088711 487.082901 195.530455 487.082901 155.004186 361.697757 193.003561 361.697757 129.671269 361.697757 66.338977 485.611545 40.52627 485.611545 40.52627 485.611545 40.52627 421.031799 83.707378 421.031799 129.319423ZM215.265821 238.711564C215.265821 238.711564 282.404448 195.530455 282.404448 155.004186 282.404448 114.477916 157.019304 152.477291 157.019304 89.144999 157.019304 25.812707 280.933092 0 280.933092 0 280.933092 0 216.353345 43.181108 216.353345 88.761167 216.353345 134.373212 346.824264 93.846942 346.824264 154.65234 346.824264 215.457737 215.265821 238.711564 215.265821 238.711564ZM900.629974 922.636347C900.629974 978.611857 698.990192 1023.968014 450.33098 1023.968014 201.607797 1023.968014 0 978.611857 0 922.636347 0 923.851815 900.629974 923.851815 900.629974 922.636347Z" p-id="14200"></path></svg>