<?xml version="1.0" standalone="no"?><!DOCTYPE svg PUBLIC "-//W3C//DTD SVG 1.1//EN" "http://www.w3.org/Graphics/SVG/1.1/DTD/svg11.dtd"><svg t="1689839945154" class="icon" viewBox="0 0 1299 1024" version="1.1" xmlns="http://www.w3.org/2000/svg" p-id="21869" xmlns:xlink="http://www.w3.org/1999/xlink" width="162.375" height="128"><path d="M657.589116 495.281633c-114.242177 0-207.238095-92.995918-207.238096-203.755102s92.995918-203.755102 203.755102-203.755102 203.755102 92.995918 203.755102 203.755102c-0.348299 110.759184-89.512925 203.755102-200.272108 203.755102z m321.480272 435.722449H332.62585c-42.840816 0-78.715646-35.87483-78.715646-78.715647 0-139.319728 135.836735-342.726531 342.726531-342.72653h110.759183c210.721088 0 342.726531 203.755102 342.726531 342.72653 7.314286 43.189116-28.212245 78.715646-71.053061 78.715647z m0 0" p-id="21870"></path><path d="M219.080272 852.288435c0-82.546939 43.189116-185.991837 119.466667-262.269387h-16.718368c-172.059864 0-284.908844 169.273469-284.908843 284.908843 0 35.526531 29.605442 65.480272 65.480272 65.480272h163.352381c-28.212245-19.156463-46.672109-51.548299-46.672109-88.119728zM1269.89932 873.882993c0-115.635374-109.714286-284.908844-284.908844-284.908843h-33.088435c6.965986 6.965986 13.583673 13.931973 20.20136 21.594557 60.604082 69.659864 98.568707 161.262585 99.265306 239.629932 3.831293 26.470748-3.831293 52.244898-21.246258 72.794558-5.22449 5.921088-10.797279 11.493878-17.066667 16.021769h177.632653c35.526531 0 65.131973-29.605442 59.210885-65.131973zM939.363265 576.783673h4.179592c91.95102 0 166.138776-77.322449 166.138776-169.273469 0-91.95102-77.322449-169.273469-169.27347-169.273469-22.987755 0-45.278912 4.87619-65.480272 13.583673 2.438095 12.887075 3.482993 26.122449 3.482993 39.357823 0 75.929252-36.223129 143.15102-91.602721 185.643538 2.786395 6.269388 6.269388 12.538776 10.100681 18.459864 51.896599 15.32517 100.310204 42.840816 142.454421 81.50204zM352.130612 577.131973c45.627211-41.795918 101.355102-73.839456 166.138776-87.771429 1.044898-1.741497 1.741497-3.482993 2.438095-4.87619-12.887075-8.359184-25.077551-18.459864-36.223129-29.605442-44.582313-43.885714-68.963265-102.051701-68.963266-163.004082 0-14.976871 1.393197-29.605442 4.527892-43.885714-16.021769-5.22449-33.088435-8.010884-50.503402-8.010885-91.95102 0-169.273469 77.322449-169.273469 169.27347 0 85.333333 66.52517 157.779592 151.858503 167.880272z" p-id="21871"></path></svg>